<svg xmlns="http://www.w3.org/2000/svg" width="20.002" height="21.43" viewBox="0 0 20.002 21.43"><g transform="translate(-2 0)"><path d="M21.644,1.429h-2.5V.357A.357.357,0,0,0,18.787,0h-2.5a.357.357,0,0,0-.357.357V1.429H8.072V.357A.357.357,0,0,0,7.715,0h-2.5a.357.357,0,0,0-.357.357V1.429h-2.5A.357.357,0,0,0,2,1.786V21.073a.357.357,0,0,0,.357.357H21.644A.357.357,0,0,0,22,21.073V1.786A.357.357,0,0,0,21.644,1.429Zm-5-.714H18.43V2.857H16.644V.714ZM5.572.714H7.357V2.857H5.572V.714ZM2.714,2.143H4.857V3.214a.357.357,0,0,0,.357.357h2.5a.357.357,0,0,0,.357-.357V2.143h7.858V3.214a.357.357,0,0,0,.357.357h2.5a.357.357,0,0,0,.357-.357V2.143h2.143V5.357H2.714Zm0,18.573V6.072H21.287V20.716Z"/><path d="M20.339,23H11V34.049H24.143V23h-3.8Zm-2.421.762h2.421v2.667H17.918Zm2.421,6.1H17.918V27.191h2.421ZM14.8,27.191h2.421v2.667H14.8Zm0-3.429h2.421v2.667H14.8Zm-3.113,0h2.421v2.667H11.692Zm0,3.429h2.421v2.667H11.692Zm2.421,6.1H11.692V30.62h2.421Zm3.113,0H14.8V30.62h2.421Zm3.113,0H17.918V30.62h2.421Zm3.113,0H21.03V30.62h2.421Zm0-3.429H21.03V27.191h2.421Zm0-6.1v2.667H21.03V23.762Z" transform="translate(-5.571 -15.667)"/></g></svg>