<svg xmlns="http://www.w3.org/2000/svg" width="17.564" height="17.563" viewBox="0 0 17.564 17.563">
  <g id="clock" transform="translate(0 0)">
    <g id="Group_289" data-name="Group 289">
      <path id="Path_824" data-name="Path 824" d="M8.782,17.563a8.782,8.782,0,1,1,8.781-8.78A8.791,8.791,0,0,1,8.782,17.563Zm0-17.029a8.247,8.247,0,1,0,8.247,8.249A8.258,8.258,0,0,0,8.782.535Z" fill="#3e3e3e"/>
    </g>
    <path id="Path_825" data-name="Path 825" d="M18.75,15.087a.266.266,0,0,1-.206-.1l-2.552-3.084a.267.267,0,0,1-.061-.17V6.611a.267.267,0,0,1,.535,0V11.64l2.491,3.01a.267.267,0,0,1-.206.437Z" transform="translate(-7.415 -2.953)" fill="#3e3e3e"/>
  </g>
</svg>
