<svg xmlns="http://www.w3.org/2000/svg" width="23.791" height="22.91" viewBox="0 0 23.791 22.91">
  <g id="map" transform="translate(0 -1)">
    <path id="Path_796" data-name="Path 796" d="M23.577,1.063a.44.44,0,0,0-.433-.012L15.86,4.907,8.577,1.051l-.018-.007a.442.442,0,0,0-.065-.024l-.037-.01A.458.458,0,0,0,8.384,1H8.35a.426.426,0,0,0-.07.011.387.387,0,0,0-.039.008l-.009,0L.3,3.666a.44.44,0,0,0-.3.418V23.028a.44.44,0,0,0,.441.441.433.433,0,0,0,.139-.023l7.774-2.591,7.339,3.022c.006,0,.013,0,.019,0a.4.4,0,0,0,.266.012c.012,0,.024-.009.036-.014a.45.45,0,0,0,.053-.02l7.49-3.965a.441.441,0,0,0,.234-.389V1.44A.441.441,0,0,0,23.577,1.063ZM.881,4.4,7.93,2.052V13.944c-.189.034-.376.073-.557.121a.441.441,0,0,0,.113.867.459.459,0,0,0,.113-.015c.106-.028.221-.042.331-.065v5.216L.881,22.417Zm7.93,10.326c.141-.011.278-.029.423-.032a.441.441,0,0,0-.009-.881h-.01c-.137,0-.271.011-.4.02V2.172l6.609,3.5v9.337a6.587,6.587,0,0,1-.97-.115.44.44,0,1,0-.167.865,7.486,7.486,0,0,0,1.138.127v6.926L8.811,20.09Zm14.1,4.51-6.609,3.5v-6.9a.433.433,0,0,0,0-.793V5.671l6.609-3.5Z"/>
    <path id="Path_797" data-name="Path 797" d="M8.2,9a2.2,2.2,0,0,0-.441,4.361v.926a.441.441,0,1,0,.881,0v-.926A2.2,2.2,0,0,0,8.2,9Zm0,3.525A1.322,1.322,0,1,1,9.525,11.2,1.323,1.323,0,0,1,8.2,12.525Z" transform="translate(-3.357 -4.476)"/>
    <path id="Path_798" data-name="Path 798" d="M44.715,24.443a.442.442,0,0,0,.571-.25,9.866,9.866,0,0,0,.495-1.773.441.441,0,1,0-.866-.162,8.972,8.972,0,0,1-.449,1.614A.441.441,0,0,0,44.715,24.443Z" transform="translate(-24.858 -11.692)"/>
    <path id="Path_799" data-name="Path 799" d="M10.864,32.256A6.11,6.11,0,0,0,9.438,33.5a.441.441,0,0,0,.674.568A5.213,5.213,0,0,1,11.331,33a.441.441,0,0,0-.468-.747Z" transform="translate(-5.222 -17.448)"/>
    <path id="Path_800" data-name="Path 800" d="M7.157,38.225a.441.441,0,0,0-.585.215A7.032,7.032,0,0,0,6,40.246a.44.44,0,0,0,.376.5.409.409,0,0,0,.061,0,.442.442,0,0,0,.436-.379,6.226,6.226,0,0,1,.5-1.557A.441.441,0,0,0,7.157,38.225Z" transform="translate(-3.356 -20.802)"/>
    <path id="Path_801" data-name="Path 801" d="M39.862,31.2a.44.44,0,0,0,.2-.048,4.59,4.59,0,0,0,1.491-1.227.441.441,0,0,0-.687-.552,3.707,3.707,0,0,1-1.2.994.44.44,0,0,0,.2.833Z" transform="translate(-22.053 -15.781)"/>
    <path id="Path_802" data-name="Path 802" d="M26.236,30.836c-.194-.082-.308-.138-.315-.142a.439.439,0,0,0-.09-.034c-.477-.122-.947-.219-1.4-.288a.441.441,0,1,0-.133.871c.408.063.834.15,1.268.26.059.028.172.082.33.147a.441.441,0,0,0,.34-.814Z" transform="translate(-13.384 -16.428)"/>
    <path id="Path_803" data-name="Path 803" d="M46.4,16.577h.029a.44.44,0,0,0,.439-.413c.027-.423.041-.871.041-1.331,0-.153,0-.308,0-.466a.453.453,0,0,0-.448-.433.441.441,0,0,0-.433.449c0,.153,0,.3,0,.45,0,.441-.013.869-.039,1.275A.441.441,0,0,0,46.4,16.577Z" transform="translate(-25.727 -7.237)"/>
    <path id="Path_804" data-name="Path 804" d="M8.129,25.514a.44.44,0,0,0,.623,0l.57-.57.57.57a.441.441,0,1,0,.623-.623l-.57-.57.57-.57a.441.441,0,0,0-.623-.623l-.57.57-.57-.57a.441.441,0,0,0-.623.623l.57.57-.57.57A.44.44,0,0,0,8.129,25.514Z" transform="translate(-4.475 -12.307)"/>
  </g>
</svg>
