<svg xmlns="http://www.w3.org/2000/svg" width="23.734" height="22" viewBox="0 0 23.734 22"><path d="M14.148.5A.348.348,0,0,0,13.8.848V9.606a.834.834,0,0,0-.314.25L9.3,15.29,7.61,13.106a.7.7,0,0,0-1.116,0L.153,21.33A.727.727,0,0,0,.728,22.5H13.337a.348.348,0,1,0,0-.7H5.149L9.57,16.072l4.466-5.791a.14.14,0,0,1,.222,0l8.756,11.353a.106.106,0,0,1-.084.171H14.959a.348.348,0,1,0,0,.7h7.972a.8.8,0,0,0,.635-1.291L14.81,9.856a.834.834,0,0,0-.314-.25v-3.9h1.2a.348.348,0,1,0,0-.7H14.5V1.792h4.538L17.9,3.009a.579.579,0,0,0,0,.789l1.137,1.217H17.318a.348.348,0,0,0,0,.7H19.3a.578.578,0,0,0,.422-.973L18.479,3.4l1.247-1.334A.579.579,0,0,0,19.3,1.1H14.5V.848A.348.348,0,0,0,14.148.5ZM.7,21.754l6.342-8.224a.009.009,0,0,1,.014,0l1.8,2.329L4.271,21.8H.728A.031.031,0,0,1,.7,21.754Zm0,0" transform="translate(-0.001 -0.5)"/></svg>