<svg xmlns="http://www.w3.org/2000/svg" xmlns:xlink="http://www.w3.org/1999/xlink" width="20" height="20" viewBox="0 0 20 20">
  <defs>
    <clipPath id="clip-ICONS">
      <rect width="20" height="20"/>
    </clipPath>
  </defs>
  <g id="ICONS" clip-path="url(#clip-ICONS)">
    <g id="view" transform="translate(0 -8.644)">
      <path id="Path_841" data-name="Path 841" d="M17.25,15.657a10.312,10.312,0,0,0-14.568,0L0,18.339l2.749,2.749a10.312,10.312,0,0,0,14.568,0L20,18.406Zm-.411,4.954a9.637,9.637,0,0,1-13.612,0L.955,18.339,3.16,16.134a9.637,9.637,0,0,1,13.612,0l2.272,2.272Z"/>
      <path id="Path_842" data-name="Path 842" d="M24.15,21.57a2.58,2.58,0,0,0-2.578,2.578.368.368,0,0,0,.736,0,1.843,1.843,0,0,1,1.841-1.841.368.368,0,1,0,0-.736Z" transform="translate(-14.387 -5.994)"/>
      <path id="Path_843" data-name="Path 843" d="M21.359,16.57a4.557,4.557,0,0,0-4.787,4.272,4.557,4.557,0,0,0,4.787,4.272,4.557,4.557,0,0,0,4.787-4.272A4.556,4.556,0,0,0,21.359,16.57Zm0,7.886a3.856,3.856,0,0,1-4.05-3.614,3.856,3.856,0,0,1,4.05-3.614,3.856,3.856,0,0,1,4.05,3.614A3.855,3.855,0,0,1,21.359,24.456Z" transform="translate(-11.368 -2.48)"/>
    </g>
  </g>
</svg>
