<?xml version="1.0" standalone="no"?>
<!DOCTYPE svg PUBLIC "-//W3C//DTD SVG 20010904//EN"
 "http://www.w3.org/TR/2001/REC-SVG-20010904/DTD/svg10.dtd">
<svg version="1.0" xmlns="http://www.w3.org/2000/svg"
 width="2565.000000pt" height="2565.000000pt" viewBox="0 0 2565.000000 2565.000000"
 preserveAspectRatio="xMidYMid meet">
<metadata>
Created by potrace 1.11, written by Peter Selinger 2001-2013
</metadata>
<g transform="translate(0.000000,2565.000000) scale(0.100000,-0.100000)"
fill="#000000" stroke="none">
<path d="M0 12825 l0 -12825 12825 0 12825 0 0 12825 0 12825 -12825 0 -12825
0 0 -12825z m15190 6225 l2349 -1355 1 -1640 0 -1641 -1742 -1005 c-959 -553
-2592 -1496 -3630 -2095 l-1888 -1089 0 -215 c0 -332 37 -580 125 -846 285
-855 987 -1491 1862 -1689 352 -79 764 -79 1116 0 667 151 1243 561 1607 1145
80 128 194 369 244 517 82 241 124 475 135 746 l6 168 1070 621 c589 341 1076
622 1083 625 15 7 17 -1516 2 -1702 -87 -1028 -481 -1965 -1148 -2733 -718
-827 -1714 -1381 -2797 -1557 -287 -47 -440 -59 -760 -59 -329 0 -488 13 -792
64 -2019 339 -3605 1975 -3882 4005 -38 274 -41 375 -41 1276 l0 887 1333 770
c732 423 2003 1156 2822 1630 820 473 1852 1069 2295 1325 l805 465 3 384 2
384 -1272 734 c-699 404 -1274 734 -1277 733 -3 -1 -571 -328 -1261 -726
l-1255 -725 -5 -364 -5 -363 -1045 -593 c-575 -326 -1066 -604 -1092 -618
l-48 -24 0 1602 1 1603 2352 1357 c1294 747 2358 1357 2365 1355 7 -1 1070
-612 2362 -1357z m-5217 -4227 c4 -54 7 -403 7 -775 l0 -678 -760 0 -760 0 0
343 1 342 747 432 c411 238 750 432 753 433 3 0 9 -44 12 -97z m7197 -2735
l-1 -343 -749 -433 c-412 -239 -754 -431 -760 -427 -7 4 -10 261 -10 776 l0
769 760 0 760 0 0 -342z"/>
</g>
</svg>
